<?xml version="1.0" standalone="no"?>
<!DOCTYPE svg PUBLIC "-//W3C//DTD SVG 20010904//EN"
 "http://www.w3.org/TR/2001/REC-SVG-20010904/DTD/svg10.dtd">
<svg version="1.0" xmlns="http://www.w3.org/2000/svg"
 width="1280.000000pt" height="1162.000000pt" viewBox="0 0 1280.000000 1162.000000"
 preserveAspectRatio="xMidYMid meet">
<metadata>
Created by potrace 1.15, written by Peter Selinger 2001-2017
</metadata>
<g transform="translate(0.000000,1162.000000) scale(0.100000,-0.100000)"
fill="#3b82f6" stroke="none">
<path d="M1685 11605 c-131 -34 -315 -149 -468 -294 -68 -65 -78 -71 -117 -71
-72 0 -244 -29 -355 -61 -242 -67 -478 -204 -651 -375 -70 -70 -93 -99 -83
-104 27 -14 818 -165 979 -186 l55 -7 255 -248 c140 -136 269 -262 287 -281
44 -46 97 -137 129 -222 15 -39 36 -83 46 -99 97 -138 109 -449 48 -1152 -24
-264 -25 -380 -5 -501 20 -127 95 -417 160 -624 54 -171 74 -240 136 -465 141
-508 475 -1055 928 -1519 216 -221 420 -403 596 -532 144 -106 811 -482 1140
-644 121 -60 266 -124 321 -143 181 -63 315 -141 482 -281 180 -152 208 -191
289 -401 66 -173 283 -793 283 -810 0 -3 -228 -195 -507 -427 -619 -514 -593
-492 -620 -507 -15 -7 -111 -14 -268 -18 l-245 -6 -68 70 c-137 141 -195 152
-289 57 -29 -30 -53 -60 -53 -66 0 -20 -62 -1 -271 80 -298 118 -278 114 -389
64 -51 -24 -107 -54 -124 -67 -37 -28 -80 -103 -90 -153 l-6 -34 46 41 c47 41
99 63 131 55 10 -3 26 -18 34 -33 23 -40 98 -63 229 -70 103 -6 105 -7 108
-31 14 -104 242 -171 640 -187 l154 -6 -117 -117 -116 -116 -171 -21 -172 -21
-65 25 c-92 35 -145 50 -224 64 -112 19 -174 -16 -233 -132 -13 -27 -35 -56
-48 -64 -42 -28 -76 -105 -76 -174 0 -33 2 -61 4 -61 3 0 22 16 43 36 59 55
105 75 165 72 32 -1 100 10 171 27 l118 29 55 -28 c30 -16 53 -30 51 -32 -2
-2 -149 -53 -327 -114 -304 -103 -328 -110 -402 -110 -155 0 -327 -55 -414
-132 -22 -19 -64 -46 -95 -61 -146 -70 -228 -205 -204 -333 l7 -38 34 64 c40
75 93 134 146 161 46 23 98 25 98 4 0 -8 15 -25 33 -36 27 -17 43 -20 112 -16
120 8 234 45 503 163 38 17 39 20 -21 -69 -90 -133 -102 -255 -30 -303 14 -8
25 -14 26 -12 62 124 103 164 214 203 216 76 523 266 848 525 l123 99 61 -20
c94 -29 243 -56 381 -70 135 -13 393 -7 469 11 68 16 242 92 248 107 9 22 -46
71 -104 93 -114 43 -373 80 -555 80 l-88 0 0 28 0 28 143 11 c188 16 283 47
323 108 25 38 21 106 -9 166 -30 61 -30 60 63 145 289 260 964 613 1704 890
l128 48 70 106 c38 58 104 174 146 259 l77 154 -1 106 c0 97 -11 161 -50 300
l-7 24 114 -6 c130 -7 241 -27 320 -56 64 -24 149 -76 149 -91 0 -20 119 -87
242 -138 239 -98 621 -221 1168 -377 238 -68 339 -101 374 -123 142 -90 561
-192 1306 -317 253 -42 343 -61 370 -78 149 -90 378 -253 813 -580 153 -114
286 -207 294 -205 9 2 27 23 41 48 21 39 23 54 19 118 -5 67 -10 81 -59 158
-129 205 -440 507 -923 896 -205 164 -680 521 -863 647 -67 47 -120 87 -117
89 3 3 1223 -399 1324 -436 32 -12 -27 182 -85 278 -63 105 -191 211 -298 246
-47 16 -49 18 -25 24 51 14 69 30 69 60 0 36 -91 217 -133 264 -37 41 -160
109 -697 382 l-365 186 -165 168 c-394 399 -450 447 -2345 1975 -429 346 -840
684 -913 752 -1014 933 -2051 1620 -2845 1884 -81 27 -189 57 -239 67 l-91 19
-23 79 c-12 44 -77 243 -143 444 -193 586 -240 736 -282 900 -65 247 -127 359
-288 512 -316 303 -650 411 -1306 423 -193 4 -252 2 -300 -10z"/>
</g>
</svg>
